<svg xmlns="http://www.w3.org/2000/svg" viewBox="0 0 117.16 28.82"><defs><style>.cls-1{fill:#fff;}</style></defs><title>Asset 3</title><g id="Layer_2" data-name="Layer 2"><g id="Layer_1-2" data-name="Layer 1"><path class="cls-1" d="M15.69,11.73a4.44,4.44,0,0,1,.11-.67,1.72,1.72,0,0,1,3.42.36c0,2,.1,4,0,6a21.76,21.76,0,0,0,1.16,8.25,6,6,0,0,1,.26.92,1.71,1.71,0,0,1-1.21,2.14,1.67,1.67,0,0,1-2.08-1.15c-.24-.57-.09-1.49-.69-1.64-.35-.09-.91.66-1.38,1a9.59,9.59,0,1,1-1.46-16.31C14.42,11,15,11.32,15.69,11.73ZM3.45,19.28a6.14,6.14,0,1,0,12.28-.14,6.07,6.07,0,0,0-6.27-6A6,6,0,0,0,3.45,19.28Z"/><path class="cls-1" d="M112.17,11.73c0-.22,0-.38.08-.53a1.67,1.67,0,0,1,1.82-1.55,1.7,1.7,0,0,1,1.64,1.87c0,2,.09,3.92,0,5.88a21.54,21.54,0,0,0,1.16,8.24,8.12,8.12,0,0,1,.22.81,1.73,1.73,0,1,1-3.29,1c-.59-1.64-.59-1.64-1.92-.6A9.59,9.59,0,0,1,98.24,13.7a9.53,9.53,0,0,1,12-3.06C110.89,10.94,111.46,11.31,112.17,11.73ZM99.93,19.19a6.14,6.14,0,1,0,12.28,0,6.14,6.14,0,0,0-12.28,0Z"/><path class="cls-1" d="M30.89,11.33c0-3.08,0-6.15,0-9.23,0-1.28.64-2.05,1.65-2.1s1.82.74,1.84,2.05c0,2.39,0,4.79,0,7.18,0,.82.19,1.14,1,1.09,1.24-.07,2.48,0,3.72,0A1.69,1.69,0,0,1,41.05,12a1.72,1.72,0,0,1-1.91,1.69c-1.28,0-2.56.05-3.83,0-.77,0-.94.26-.93,1,0,1.84,0,3.68,0,5.52a4.83,4.83,0,0,0,4.49,5c1.42.19,2.11.8,2,1.82s-1,1.66-2.38,1.58a8.37,8.37,0,0,1-7.65-8.36C30.86,17.24,30.89,14.28,30.89,11.33Z"/><path class="cls-1" d="M57,20.73c0-2,0-4,0-6,0-1.33-.39-1.71-1.7-1.73-.68,0-1.36,0-2,0a1.69,1.69,0,0,1,0-3.37c2.33-.08,4.7-.28,6.33,1.94.37.51.61,0,.85-.19A9.06,9.06,0,0,1,65.3,9.6a1.81,1.81,0,0,1,2,1.61c.07.95-.63,1.67-1.8,1.82-3.44.46-5.13,2.4-5.14,5.9,0,2.59,0,5.19,0,7.79,0,1.31-.71,2.11-1.78,2.08S57,28.05,57,26.72C57,24.73,57,22.73,57,20.73Z"/><path class="cls-1" d="M86.06,20.69v5.75c0,1.55-.61,2.37-1.74,2.36s-1.67-.78-1.68-2.4V15.49c0-1.66-.22-1.86-1.86-1.85a10.81,10.81,0,0,1-1.8,0A1.61,1.61,0,0,1,77.49,12a1.54,1.54,0,0,1,1.34-1.73,8.16,8.16,0,0,1,4.59.34,4.23,4.23,0,0,1,2.63,4.08c0,2,0,4,0,6Z"/><path class="cls-1" d="M83.78,2.64a1.77,1.77,0,0,1,1.77,1.61A1.73,1.73,0,0,1,83.85,6a1.63,1.63,0,0,1-1.67-1.66A1.68,1.68,0,0,1,83.78,2.64Z"/></g></g></svg>